 http://desibbrg.org/images/25793733514958777881.jpg 
http://desibbrg.org/images/98847322475826650505.jpg 
http://desibbrg.org/images/59442175039556407611.jpg 
http://desibbrg.org/images/56241000763762310028.jpg 
http://desibbrg.org/images/59858340642653945890.jpg 
http://desibbrg.org/images/60441831697056698109.jpg

Info - 
Director : Girish Mohite
	 
Cast : Nirmiti Savant, Arun Nalavade, Ranjit Jog, Kadambari Desai, Prakash Inamdar, Paddy Kambale, Swati Chitnis, Vijay Gokhale,
Sachin Pilgaonkar and Ujwala Jog

Media Info - 
General
Complete name                  : Hi Porgi Konachi 2006 YTBRip.flv
Format                         : Flash Video
File size                      : 688 MiB
Duration                       : 2h 10mn
Overall bit rate               : 739 Kbps

Video
Format                         : AVC
Format/Info                    : Advanced Video Codec
Format profile                 : Main@L3.0
Format settings, CABAC         : Yes
Format settings, ReFrames      : 3 frames
Format settings, GOP           : M=1, N=25
Codec ID                       : 7
Duration                       : 2h 10mn
Bit rate                       : 634 Kbps
Width                          : 640 pixels
Height                         : 480 pixels
Display aspect ratio           : 4:3
Frame rate mode                : Constant
Frame rate                     : 25.000 fps
Color space                    : YUV
Chroma subsampling             : 4:2:0
Bit depth                      : 8 bits
Scan type                      : Progressive
Bits/(Pixel*Frame)             : 0.083
Stream size                    : 591 MiB (86%)

Audio
Format                         : AAC
Format/Info                    : Advanced Audio Codec
Format profile                 : LC
Codec ID                       : 10
Duration                       : 2h 10mn
Bit rate                       : 96.7 Kbps
Channel(s)                     : 2 channels
Channel positions              : Front: L R
Sampling rate                  : 44.1 KHz
Compression mode               : Lossy
Stream size                    : 90.1 MiB (13%)

Ripper : Saket

Seeding 24x7... Extreme Seeding...


Enjoy!
